<svg xmlns="http://www.w3.org/2000/svg" xmlns:xlink="http://www.w3.org/1999/xlink" xmlns:fi="http://pattern.flaticon.com/" x="0" y="0" width="700" height="350" viewBox="0 0 700 350"><rect x="0px" y="0px" width="100%" height="100%" opacity="0" fill="#ffffff"/><defs><g transform="matrix(0.15323779520550695 0.0551656046250278 -0.0551656046250278 0.15323779520550695 132.93832243394974 265.71734975969275)" id="L1_0"><path fill="#ddd" d="M271.549,326.81c-1.86-1.871-4.441-2.93-7.07-2.93c-2.64,0-5.21,1.06-7.07,2.93c-1.87,1.86-2.93,4.431-2.93,7.07    c0,2.63,1.06,5.21,2.93,7.07c1.86,1.859,4.43,2.93,7.07,2.93c2.63,0,5.2-1.07,7.07-2.93c1.86-1.87,2.93-4.44,2.93-7.07    C274.479,331.24,273.409,328.67,271.549,326.81z"/><path fill="#ddd" d="M454.138,206.57c-1.86-1.86-4.44-2.93-7.08-2.93c-2.63,0-5.2,1.07-7.07,2.93c-1.86,1.86-2.93,4.44-2.93,7.07    s1.07,5.21,2.93,7.07c1.87,1.86,4.44,2.93,7.07,2.93c2.64,0,5.22-1.07,7.08-2.93s2.92-4.44,2.92-7.07    S455.999,208.43,454.138,206.57z"/><path fill="#ddd" d="M398.322,31.506h-3.126c-5.818,0-11.304,1.439-16.133,3.968c-4.044-14.797-17.598-25.707-33.66-25.707h-26.971    c-7.563,0-14.566,2.426-20.288,6.53C291.957,6.514,281.048,0,268.641,0H241.67c-13.357,0-24.979,7.546-30.842,18.595    c-5.461-3.547-11.967-5.617-18.95-5.617h-16.024c-25.278,0-45.843,20.565-45.843,45.843v75.725l-31.948,9.702    c-27.6,8.381-45.619,35.302-42.845,64.013l0.022,0.228c5.178,53.605,32.44,103.426,74.796,136.688l46.395,36.433    c-5.901,7.23-9.448,16.453-9.448,26.491v61.938c0,23.139,18.825,41.963,41.963,41.963H387.81    c23.139,0,41.963-18.824,41.963-41.963V408.1c0-10.323-3.754-19.781-9.959-27.098c0.069-0.123,0.152-0.234,0.216-0.362    l22.844-45.284c9.282-18.398,14.189-39.018,14.189-59.627v-21.544c0-5.523-4.477-10-10-10s-10,4.477-10,10v21.544    c0,17.496-4.165,35-12.045,50.619l-21.597,42.812c-4.829-1.943-10.095-3.024-15.611-3.024H208.946    c-5.663,0-11.064,1.134-15.998,3.176c-0.344-0.367-0.71-0.721-1.119-1.042l-31.064-24.394h63.688c5.523,0,10-4.478,10-10    c0-5.522-4.477-10-10-10h-88.798c-34.225-29.746-56.134-72.025-60.509-117.312l-0.022-0.228    c-1.861-19.265,10.23-37.329,28.75-42.953l34.034-10.335l-7.318,20.564c-0.383,1.077-0.579,2.21-0.579,3.353v47.748    c0,5.523,4.477,10,10,10c5.523,0,10-4.477,10-10v-46.021l17.667-49.644c82.83-27.817,174.131-28.089,257.123-0.763l12.263,4.038    v31.507v10.872c0,5.523,4.477,10,10,10s10-4.477,10-10V163.83v-38.743V90.248C457.064,57.857,430.712,31.506,398.322,31.506z     M366.552,492H234.248v-17.495c0-10.219,8.314-18.533,18.533-18.533h95.238c10.219,0,18.533,8.314,18.533,18.533V492z     M186.983,408.1c0-12.111,9.853-21.964,21.963-21.964H387.81c12.111,0,21.963,9.853,21.963,21.964v61.938    c0,12.11-9.853,21.963-21.963,21.963h-1.258v-17.495c0-21.247-17.286-38.533-38.533-38.533h-95.238    c-21.247,0-38.533,17.286-38.533,38.533V492h-5.302c-12.111,0-21.963-9.853-21.963-21.963V408.1z M206.773,75.334v22.244    c-15.412,3.347-30.662,7.532-45.69,12.589c-4.84,1.628-8.758,5.011-11.073,9.459V58.821c0-14.25,11.593-25.843,25.843-25.843    h16.024c8.214,0,14.896,6.682,14.896,14.896V75.334z M283.536,44.663v30.672v12.76c-19.069,0.615-38.021,2.487-56.763,5.627    V75.335v-27.46V34.896c0-8.214,6.683-14.896,14.896-14.896h26.971c8.214,0,14.896,6.682,14.896,14.896V44.663z M360.301,66.403    v11.814v14.304c-18.763-2.791-37.714-4.342-56.764-4.617V75.335V44.663c0.001-8.214,6.683-14.896,14.897-14.896h26.971    c8.214,0,14.896,6.682,14.896,14.896V66.403z M437.063,111.268l-6.008-1.978c-16.679-5.492-33.623-9.929-50.755-13.318V78.217    V66.403c0-8.214,6.682-14.896,14.896-14.896h3.126c21.362,0,38.741,17.379,38.741,38.741V111.268z"/><path fill="#ddd" d="M236.931,195.149c-3.957-1.433-8.389-0.237-11.085,2.993l-20.593,24.672l-20.593-24.672    c-2.697-3.232-7.129-4.427-11.085-2.994c-3.957,1.435-6.592,5.192-6.592,9.401v67.739c0,5.522,4.477,10,10,10    c5.523,0,10-4.478,10-10v-40.153l10.593,12.691c1.9,2.276,4.712,3.592,7.677,3.592c2.965,0,5.777-1.316,7.677-3.592l10.593-12.692    v40.153c0,5.525,4.477,10.002,10,10.002s10-4.478,10-10V204.55C243.523,200.342,240.888,196.583,236.931,195.149z"/><path fill="#ddd" d="M325.822,195.149c-3.957-1.433-8.388-0.237-11.085,2.994l-20.593,24.672l-20.593-24.672    c-2.697-3.231-7.128-4.426-11.085-2.993c-3.957,1.435-6.592,5.193-6.592,9.401v67.739c0,5.522,4.477,10,10,10    c5.523,0,10-4.478,10-10v-40.153l10.593,12.692c1.9,2.276,4.712,3.592,7.677,3.592c2.965,0,5.777-1.316,7.677-3.592l10.593-12.691    v40.153c0,5.521,4.477,9.998,10,9.998s10-4.478,10-10V204.55C332.414,200.341,329.779,196.583,325.822,195.149z"/><path fill="#ddd" d="M417.91,268.437l-28.27-67.739c-1.554-3.723-5.193-6.148-9.228-6.148c-4.035,0-7.674,2.425-9.229,6.148l-28.271,67.739    c-2.127,5.097,0.28,10.953,5.377,13.08c1.259,0.525,2.563,0.774,3.848,0.774c3.914-0.001,7.631-2.313,9.232-6.151l3.063-7.339    h31.958l3.063,7.339c2.127,5.097,7.983,7.505,13.08,5.377C417.63,279.39,420.037,273.534,417.91,268.437z M372.779,248.802    l7.632-18.288l7.632,18.288H372.779z"/></g><path fill="#ddd" d="m467 60h-26.144531c-16.882813-35.441406-53.054688-60-94.855469-60s-77.972656 24.558594-94.855469 60h-25.144531c-24.8125 0-45 20.1875-45 45 0 20.832031 14.230469 38.398438 33.480469 43.5-57.167969 35.003906-93.480469 98.132812-93.480469 167.5v135h-15c-8.269531 0-15-6.730469-15-15v-300c0-24.8125-20.1875-45-45-45h-46v30h46c8.269531 0 15 6.730469 15 15v300c0 24.8125 20.1875 45 45 45h15v31h300c0-11.035156 0-278.972656 0-303.597656 15.238281-15.5625 25.679688-35.835938 28.925781-58.402344h17.074219c24.8125 0 45-20.1875 45-45s-20.1875-45-45-45zm-121-30c25.535156 0 48.121094 12.839844 61.671875 32.390625-5.316406-1.550781-10.914063-2.390625-16.671875-2.390625-17.902344 0-33.996094 7.882812-45 20.355469-11.003906-12.472657-27.097656-20.355469-45-20.355469-5.757812 0-11.335938.808594-16.621094 2.320312 13.554688-19.511718 36.113282-32.320312 61.621094-32.320312zm-120 59.800781h16.074219c-.703125 4.898438-1.074219 10.105469-1.074219 15.199219v15h-15c-8.269531 0-15-6.730469-15-15s6.730469-15.199219 15-15.199219zm-75 392.199219v-166c0-64.832031 37.382812-123.214844 94.59375-150.265625 13.171875 42.949219 53.199219 74.265625 100.40625 74.265625 16.09375 0 31.355469-3.644531 45-10.144531v206.496093c-8.929688-6.867187-19.136719-11.554687-30-13.808593v-151.542969h-30v91.589844c-8.613281-8.800782-18.757812-16.089844-30-21.445313v-70.144531h-30v61.070312c-4.898438-.703124-9.90625-1.070312-15-1.070312h-45v30h45c41.355469 0 75 33.644531 75 75v15h15c19.28125 0 36.199219 13.167969 42.441406 31zm195-272c-41.355469 0-75-33.644531-75-75v-18.269531l.171875.019531c1.636719-15.25 14.457031-26.75 29.828125-26.75 16.542969 0 30 13.457031 30 30v15h30v-15c0-16.542969 13.457031-30 30-30 14.910156 0 27.683594 11.109375 29.71875 25.84375l.28125-.039062v19.195312c0 41.355469-33.644531 75-75 75zm121-90h-16v-15c0-5.09375-.371094-10.097656-1.074219-15h17.074219c8.269531 0 15 6.730469 15 15s-6.730469 15-15 15zm0 0" transform="matrix(0.08562621474266052 0 0 0.08562621474266052 312.0796890258789 303.0796890258789)" id="L1_1"/><g transform="matrix(0.1252084362139468 -0.027005741225912035 0.027005741225912035 0.1252084362139468 301.34523512497003 107.80941796349245)" id="L1_2"><path fill="#ddd" d="m427.007812 443.558594-134.921874-221.761719v-131.796875h30v-90h-210v90h30v131.796875l-134.902344 221.738281c-18.335938 30 3.222656 68.464844 38.394531 68.464844h343.015625c35.140625 0 56.746094-38.445312 38.414062-68.441406zm-254.921874-213.355469v-140.203125h30v-30h-60v-30h150v30h-60v30h30v140.203125l43.683593 71.796875h-177.363281zm229.59375 244.132813c-1.292969 2.304687-5.15625 7.664062-13.085938 7.664062h-343.015625c-11.710937 0-18.925781-12.796875-12.785156-22.847656l77.363281-127.152344h213.863281l77.375 127.179688c4.136719 6.765624 1.578125 12.851562.285157 15.15625zm0 0"/><path fill="#ddd" d="m157.085938 362c-24.8125 0-45 20.1875-45 45s20.1875 45 45 45 45-20.1875 45-45-20.183594-45-45-45zm0 60c-8.269532 0-15-6.730469-15-15s6.730468-15 15-15c8.273437 0 15 6.730469 15 15s-6.726563 15-15 15zm0 0"/><path fill="#ddd" d="m307.085938 458.214844-21.210938-21.210938 21.210938-21.214844 21.214843 21.214844zm0 0"/><path fill="#ddd" d="m247.085938 398.214844-21.210938-21.214844 21.210938-21.210938 21.214843 21.210938zm0 0"/></g><g transform="matrix(0.060766990014868946 0.005524271833446889 -0.005524271833446889 0.060766990014868946 148.85786414555596 120.02943696683114)" id="L1_5"><path fill="#ddd" d="m256 0c-140.96875 0-256 115.050781-256 256 0 140.96875 115.050781 256 256 256 140.96875 0 256-115.050781 256-256 0-140.972656-115.050781-256-256-256zm0 482c-124.617188 0-226-101.382812-226-226s101.382812-226 226-226 226 101.382812 226 226-101.382812 226-226 226zm0 0"/><path fill="#ddd" d="m396.925781 115.074219c-72.066406-7.582031-185.40625-5.511719-236.386719 45.464843-60.191406 60.195313-56.433593 132.449219-2.4375 188.433594-9.679687 26.496094-9.96875 55.121094-1.183593 81.476563l28.460937-9.488281c-5.574218-16.722657-6.269531-34.136719-2.511718-50.523438 52.0625 37.074219 114.75 34.863281 168.59375-18.976562 50.9375-50.941407 53.066406-164.148438 45.464843-236.386719zm-66.679687 215.171875c-44.464844 44.464844-93.007813 45.273437-135.507813 11.601562 3.71875-5.925781 8.132813-11.503906 13.234375-16.609375l9.652344-9.648437 54.84375 18.28125 9.484375-28.460938-40.613281-13.539062 18.710937-18.707032 54.84375 18.28125 9.488281-28.460937-40.617187-13.539063 46.476563-46.476562-21.210938-21.210938-46.476562 46.476563-13.539063-40.617187-28.460937 9.488281 18.28125 54.84375-18.707032 18.710937-13.539062-40.613281-28.460938 9.484375 18.28125 54.847656-9.648437 9.648438c-5.121094 5.121094-9.753907 10.65625-13.871094 16.535156-22.652344-27.089844-50.035156-79.914062 8.859375-138.804688 33.945312-33.945312 106.242188-40.0625 153.964844-40.0625 13.726562 0 25.425781.503907 33.585937 1 2.226563 36.542969 4.648438 143.847657-39.054687 187.550782zm0 0"/></g></defs><g fi:class="KUsePattern"><pattern id="pattern_L1_0" width="350" height="350" patternUnits="userSpaceOnUse"><use xlink:href="#L1_0" x="-350" y="-350"/><use xlink:href="#L1_0" x="0" y="-350"/><use xlink:href="#L1_0" x="350" y="-350"/><use xlink:href="#L1_0" x="-350" y="0"/><use xlink:href="#L1_0" x="0" y="0"/><use xlink:href="#L1_0" x="350" y="0"/><use xlink:href="#L1_0" x="-350" y="350"/><use xlink:href="#L1_0" x="0" y="350"/><use xlink:href="#L1_0" x="350" y="350"/></pattern><rect x="0" y="0" width="100%" height="100%" fill="url(#pattern_L1_0)"/></g><g fi:class="KUsePattern"><pattern id="pattern_L1_1" width="350" height="350" patternUnits="userSpaceOnUse"><use xlink:href="#L1_1" x="-350" y="-350"/><use xlink:href="#L1_1" x="0" y="-350"/><use xlink:href="#L1_1" x="350" y="-350"/><use xlink:href="#L1_1" x="-350" y="0"/><use xlink:href="#L1_1" x="0" y="0"/><use xlink:href="#L1_1" x="350" y="0"/><use xlink:href="#L1_1" x="-350" y="350"/><use xlink:href="#L1_1" x="0" y="350"/><use xlink:href="#L1_1" x="350" y="350"/></pattern><rect x="0" y="0" width="100%" height="100%" fill="url(#pattern_L1_1)"/></g><g fi:class="KUsePattern"><pattern id="pattern_L1_2" width="350" height="350" patternUnits="userSpaceOnUse"><use xlink:href="#L1_2" x="-350" y="-350"/><use xlink:href="#L1_2" x="0" y="-350"/><use xlink:href="#L1_2" x="350" y="-350"/><use xlink:href="#L1_2" x="-350" y="0"/><use xlink:href="#L1_2" x="0" y="0"/><use xlink:href="#L1_2" x="350" y="0"/><use xlink:href="#L1_2" x="-350" y="350"/><use xlink:href="#L1_2" x="0" y="350"/><use xlink:href="#L1_2" x="350" y="350"/></pattern><rect x="0" y="0" width="100%" height="100%" fill="url(#pattern_L1_2)"/></g><g fi:class="KUsePattern"><pattern id="pattern_L1_5" width="350" height="350" patternUnits="userSpaceOnUse"><use xlink:href="#L1_5" x="-350" y="-350"/><use xlink:href="#L1_5" x="0" y="-350"/><use xlink:href="#L1_5" x="350" y="-350"/><use xlink:href="#L1_5" x="-350" y="0"/><use xlink:href="#L1_5" x="0" y="0"/><use xlink:href="#L1_5" x="350" y="0"/><use xlink:href="#L1_5" x="-350" y="350"/><use xlink:href="#L1_5" x="0" y="350"/><use xlink:href="#L1_5" x="350" y="350"/></pattern><rect x="0" y="0" width="100%" height="100%" fill="url(#pattern_L1_5)"/></g></svg>